<svg width="80" height="75" viewBox="0 0 80 75" fill="none" xmlns="http://www.w3.org/2000/svg">
<path d="M0.9 69C0.833333 69 0.8 68.9667 0.8 68.9L0.84 55.16C0.84 55.1067 0.866667 55.08 0.92 55.08L4.66 55.06C5.39333 55.0467 6.06 55.22 6.66 55.58C7.27333 55.94 7.76 56.4267 8.12 57.04C8.48 57.64 8.66 58.3067 8.66 59.04V64.78C8.66 65.5533 8.47333 66.26 8.1 66.9C7.72667 67.5267 7.22667 68.0267 6.6 68.4C5.97333 68.7733 5.26667 68.9667 4.48 68.98L0.9 69ZM3.24 66.54H4.48C4.97333 66.54 5.38667 66.3667 5.72 66.02C6.06667 65.6733 6.24 65.26 6.24 64.78V59.02C6.24 58.5933 6.08 58.2267 5.76 57.92C5.45333 57.6 5.08667 57.4467 4.66 57.46L3.26 57.48L3.24 66.54ZM10.3136 69C10.2603 69 10.2336 68.9667 10.2336 68.9L10.2736 55.16C10.2736 55.1067 10.3003 55.08 10.3536 55.08H14.3936C15.1136 55.08 15.7736 55.26 16.3736 55.62C16.9869 55.9667 17.4736 56.44 17.8336 57.04C18.1936 57.6267 18.3736 58.2933 18.3736 59.04C18.3736 59.5333 18.3003 59.98 18.1536 60.38C18.0069 60.7667 17.8336 61.1 17.6336 61.38C17.4336 61.6467 17.2536 61.8467 17.0936 61.98C17.8136 62.78 18.1736 63.72 18.1736 64.8L18.1936 68.9C18.1936 68.9667 18.1603 69 18.0936 69H15.8336C15.7803 69 15.7536 68.98 15.7536 68.94V64.8C15.7536 64.32 15.5803 63.9067 15.2336 63.56C14.9003 63.2 14.4869 63.02 13.9936 63.02H12.6736L12.6536 68.9C12.6536 68.9667 12.6269 69 12.5736 69H10.3136ZM12.6736 60.62H14.3936C14.8069 60.62 15.1736 60.4667 15.4936 60.16C15.8136 59.8533 15.9736 59.48 15.9736 59.04C15.9736 58.6133 15.8136 58.2467 15.4936 57.94C15.1869 57.6333 14.8203 57.48 14.3936 57.48H12.6736V60.62ZM19.982 69C19.9154 69 19.882 68.9667 19.882 68.9L19.902 55.16C19.902 55.1067 19.9287 55.08 19.982 55.08H22.222C22.2754 55.08 22.302 55.1067 22.302 55.16L22.322 68.9C22.322 68.9667 22.2954 69 22.242 69H19.982ZM26.3213 69C26.2679 69 26.2346 68.9667 26.2212 68.9L23.4613 55.16C23.4479 55.1067 23.4746 55.08 23.5413 55.08H25.8013C25.8546 55.08 25.8879 55.1067 25.9013 55.16L27.5413 64.32L29.1413 55.16C29.1546 55.1067 29.1879 55.08 29.2413 55.08H31.4813C31.5479 55.08 31.5746 55.1067 31.5613 55.16L28.8413 68.9C28.8279 68.9667 28.7946 69 28.7413 69H26.3213ZM32.8136 69C32.7603 69 32.7336 68.9667 32.7336 68.9L32.7536 55.16C32.7536 55.1067 32.7803 55.08 32.8336 55.08H39.2536C39.3069 55.08 39.3336 55.1133 39.3336 55.18V57.42C39.3336 57.4733 39.3069 57.5 39.2536 57.5H35.1536V60.62H39.2536C39.3069 60.62 39.3336 60.6467 39.3336 60.7L39.3536 62.96C39.3536 63.0133 39.3269 63.04 39.2736 63.04H35.1536V66.54H39.2736C39.3269 66.54 39.3536 66.5733 39.3536 66.64V68.92C39.3536 68.9733 39.3269 69 39.2736 69H32.8136ZM44.1808 69C44.1274 69 44.1008 68.9667 44.1008 68.9L44.1408 55.16C44.1408 55.1067 44.1674 55.08 44.2208 55.08H46.6608C46.7141 55.08 46.7608 55.1067 46.8008 55.16L48.6208 57.8L50.4408 55.16C50.4808 55.1067 50.5274 55.08 50.5808 55.08H53.0408C53.0941 55.08 53.1208 55.1067 53.1208 55.16L53.1608 68.9C53.1608 68.9667 53.1341 69 53.0808 69H50.8208C50.7674 69 50.7408 68.9667 50.7408 68.9L50.7208 58.7L48.6208 61.74L46.5408 58.7L46.5208 68.9C46.5208 68.9667 46.4941 69 46.4408 69H44.1808ZM58.543 69.2C57.823 69.2 57.163 69.02 56.563 68.66C55.9763 68.2867 55.503 67.8 55.143 67.2C54.783 66.5867 54.603 65.9133 54.603 65.18L54.623 58.84C54.623 58.1067 54.7963 57.44 55.143 56.84C55.503 56.24 55.983 55.76 56.583 55.4C57.183 55.04 57.8363 54.86 58.543 54.86C59.263 54.86 59.9163 55.04 60.503 55.4C61.0896 55.76 61.5563 56.24 61.903 56.84C62.263 57.44 62.443 58.1067 62.443 58.84L62.463 65.18C62.463 65.9133 62.283 66.5867 61.923 67.2C61.5763 67.8 61.103 68.2867 60.503 68.66C59.9163 69.02 59.263 69.2 58.543 69.2ZM58.543 66.78C58.943 66.78 59.2896 66.62 59.583 66.3C59.8896 65.9667 60.043 65.5933 60.043 65.18L60.023 58.84C60.023 58.4 59.883 58.0267 59.603 57.72C59.323 57.4133 58.9696 57.26 58.543 57.26C58.1296 57.26 57.7763 57.4133 57.483 57.72C57.1896 58.0133 57.043 58.3867 57.043 58.84V65.18C57.043 65.62 57.1896 66 57.483 66.32C57.7763 66.6267 58.1296 66.78 58.543 66.78ZM65.7297 69C65.6764 69 65.6497 68.9667 65.6497 68.9V57.5H63.0497C62.983 57.5 62.9497 57.4667 62.9497 57.4L62.9697 55.16C62.9697 55.1067 62.9964 55.08 63.0497 55.08H70.6497C70.7164 55.08 70.7497 55.1067 70.7497 55.16V57.4C70.7497 57.4667 70.723 57.5 70.6697 57.5H68.0497L68.0697 68.9C68.0697 68.9667 68.043 69 67.9897 69H65.7297ZM74.9883 69.2C74.2683 69.2 73.6083 69.02 73.0083 68.66C72.4216 68.2867 71.9483 67.8 71.5883 67.2C71.2283 66.5867 71.0483 65.9133 71.0483 65.18L71.0683 58.84C71.0683 58.1067 71.2416 57.44 71.5883 56.84C71.9483 56.24 72.4283 55.76 73.0283 55.4C73.6283 55.04 74.2816 54.86 74.9883 54.86C75.7083 54.86 76.3616 55.04 76.9483 55.4C77.5349 55.76 78.0016 56.24 78.3483 56.84C78.7083 57.44 78.8883 58.1067 78.8883 58.84L78.9083 65.18C78.9083 65.9133 78.7283 66.5867 78.3683 67.2C78.0216 67.8 77.5483 68.2867 76.9483 68.66C76.3616 69.02 75.7083 69.2 74.9883 69.2ZM74.9883 66.78C75.3883 66.78 75.7349 66.62 76.0283 66.3C76.3349 65.9667 76.4883 65.5933 76.4883 65.18L76.4683 58.84C76.4683 58.4 76.3283 58.0267 76.0483 57.72C75.7683 57.4133 75.4149 57.26 74.9883 57.26C74.5749 57.26 74.2216 57.4133 73.9283 57.72C73.6349 58.0133 73.4883 58.3867 73.4883 58.84V65.18C73.4883 65.62 73.6349 66 73.9283 66.32C74.2216 66.6267 74.5749 66.78 74.9883 66.78Z" fill="#2F3035"/>
<path d="M59.0441 7.95599C58.3406 7.2526 57.2364 7.14888 56.4141 7.70921C53.3162 9.82072 37.7781 20.4384 36.1082 22.1082C33.6866 24.53 33.6866 28.4702 36.1082 30.8919C37.319 32.1027 38.9097 32.7081 40.5001 32.7081C42.0905 32.7081 43.681 32.1027 44.8919 30.8919C46.5618 29.222 57.1794 13.6839 59.291 10.5861C59.8511 9.76389 59.7475 8.65958 59.0441 7.95599ZM41.9639 27.964C41.1568 28.7713 39.8433 28.7713 39.0362 27.964C38.2289 27.1569 38.2288 25.8438 39.0357 25.0366C39.6846 24.3954 44.0961 21.2492 49.5239 17.4763C45.7511 22.9041 42.6049 27.3154 41.9639 27.964Z" fill="#2F3035"/>
<path d="M23.5473 36.1294L20.9915 37.3762C19.1214 34.0386 18.1406 30.3134 18.1406 26.5C18.1406 23.706 18.6558 21.03 19.5961 18.5621L22.5246 19.9668C22.8134 20.1053 23.1183 20.171 23.4186 20.171C24.1901 20.171 24.9307 19.7377 25.2867 18.9955C25.7811 17.9646 25.3463 16.7279 24.3153 16.2334L21.4239 14.8465C25.0177 8.98547 31.2356 4.89919 38.4298 4.23565V7.34951C38.4298 8.49294 39.3567 9.41982 40.5001 9.41982C41.6435 9.41982 42.5704 8.49294 42.5704 7.34951V4.2341C45.037 4.45863 47.4236 5.08676 49.6893 6.10949C50.7312 6.57997 51.9575 6.11632 52.428 5.07444C52.8985 4.03224 52.435 2.8061 51.3928 2.33562C47.9596 0.78589 44.2948 0 40.5 0C33.4216 0 26.7669 2.75641 21.7616 7.7616C16.7565 12.7669 14 19.4216 14 26.5C14 31.7306 15.5525 36.8178 18.4898 41.2111C18.8854 41.8027 19.5395 42.131 20.2122 42.131C20.518 42.131 20.8277 42.0632 21.1187 41.9212L25.3628 39.8509C26.3905 39.3496 26.8172 38.1102 26.3159 37.0825C25.8145 36.0549 24.5751 35.6283 23.5473 36.1294Z" fill="#2F3035"/>
<path d="M64.6643 15.6073C64.194 14.5652 62.968 14.1015 61.9255 14.5721C60.8834 15.0426 60.42 16.2688 60.8905 17.3109C62.1971 20.2049 62.8594 23.2966 62.8594 26.5C62.8594 30.3191 61.8754 34.0504 59.9998 37.3917L57.3315 36.1211C56.2994 35.6296 55.0639 36.0678 54.5722 37.1002C54.0806 38.1325 54.519 39.368 55.5514 39.8596L59.899 41.9299C60.185 42.066 60.4882 42.1311 60.788 42.1311C61.4608 42.1311 62.1151 41.8024 62.5102 41.2113C65.4475 36.8179 67.0001 31.7307 67.0001 26.5C67.0001 22.7053 66.2142 19.0404 64.6643 15.6073Z" fill="#2F3035"/>
</svg>
